<?xml version="1.0" encoding="iso-8859-1"?>
<!-- Generator: Adobe Illustrator 19.0.0, SVG Export Plug-In . SVG Version: 6.00 Build 0)  -->
<svg version="1.1" id="Capa_1" xmlns="http://www.w3.org/2000/svg" xmlns:xlink="http://www.w3.org/1999/xlink" x="0px" y="0px"
	 viewBox="0 0 512 512" style="enable-background:new 0 0 512 512;" xml:space="preserve">
<path style="fill:#9BCCEA;" d="M472.432,26.154C474.407,11.769,464.146,0,449.627,0H62.373c-14.519,0-24.78,11.769-22.806,26.154
	l63.169,459.692C104.713,500.23,118.21,512,132.73,512h246.54c14.52,0,28.017-11.77,29.992-26.154L472.432,26.154z"/>
<polygon style="fill:#FFFFFF;" points="94.779,137.067 137.057,444.72 374.943,444.72 417.22,137.067 "/>
<path style="opacity:0.15;enable-background:new    ;" d="M97.085,444.72l5.651,41.126C104.713,500.23,118.21,512,132.73,512h246.54
	c14.52,0,28.017-11.77,29.992-26.154l5.651-41.126H97.085z"/>
<path style="opacity:0.1;enable-background:new    ;" d="M449.627,0H312.601c14.519,0,24.78,11.769,22.806,26.154l-7.809,459.692
	C325.621,500.23,312.124,512,297.604,512h81.665c14.52,0,28.017-11.77,29.992-26.154L472.43,26.154
	C474.407,11.769,464.146,0,449.627,0z"/>
<g>
</g>
<g>
</g>
<g>
</g>
<g>
</g>
<g>
</g>
<g>
</g>
<g>
</g>
<g>
</g>
<g>
</g>
<g>
</g>
<g>
</g>
<g>
</g>
<g>
</g>
<g>
</g>
<g>
</g>
</svg>
