<svg height="511pt" viewBox="0 0 511.99905 511" width="511pt" xmlns="http://www.w3.org/2000/svg"><path d="m361.882812 370.683594c55.386719-55.386719 81.988282-109.578125 85.765626-157.332032.609374-7.695312-2.28125-15.257812-7.738282-20.714843l-120.046875-120.046875c-5.457031-5.457032-13.019531-8.347656-20.714843-7.738282-47.753907 3.777344-101.941407 30.378907-157.328126 85.769532-69.316406 69.3125-123.125 166.316406-133.929687 241.59375-1.191406 8.277344 1.636719 16.625 7.550781 22.539062l82.304688 82.304688c5.914062 5.914062 14.261718 8.742187 22.539062 7.554687 75.277344-10.808593 172.28125-64.617187 241.597656-133.929687zm0 0" fill="#ff437d"/><path d="m38.070312 437.386719-22.628906-22.632813c-5.914062-5.910156-8.738281-14.257812-7.546875-22.539062 10.804688-75.269532 64.609375-172.273438 133.925781-241.589844 55.386719-55.386719 109.566407-81.992188 157.328126-85.769531 7.695312-.609375 15.257812 2.28125 20.714843 7.738281l33.011719 33.007812c-2.457031-2.457031-7.148438-2.472656-12.890625.089844-35.667969 15.867188-82.273437 50.054688-137.65625 105.4375-69.316406 69.316406-135 154.445313-163.527344 211.988282-3.144531 6.332031-3.386719 11.613281-.730469 14.269531zm0 0" fill="#db2164"/><path d="m417.214844 355.960938-1.105469 1.105468c-11.628906 11.628906-30.480469 11.628906-42.117187-.007812l-218.550782-218.550782c-11.636718-11.636718-11.636718-30.488281-.007812-42.117187l1.101562-1.105469c11.628906-11.625 30.484375-11.625 42.117188.007813l218.550781 218.554687c11.636719 11.632813 11.636719 30.488282.011719 42.113282zm0 0" fill="#a1cec8"/><path d="m417.214844 355.960938-1.105469 1.105468c-11.628906 11.628906-30.480469 11.628906-42.117187-.007812l-149.730469-149.730469c-11.636719-11.636719-11.636719-30.488281-.007813-42.117187l1.101563-1.101563c11.628906-11.628906 30.484375-11.628906 42.117187.007813l149.730469 149.730468c11.636719 11.632813 11.636719 30.488282.011719 42.113282zm0 0" fill="#d7f4f1"/><path d="m492.640625 131.097656-57.136719 57.136719-111.230468-111.230469 57.136718-57.136718c15.652344-15.652344 41.027344-15.664063 56.6875 0l54.535156 54.535156c15.664063 15.660156 15.664063 41.042968.007813 56.695312zm0 0" fill="#a1cec8"/><path d="m492.640625 131.097656-57.136719 57.136719-78.421875-78.421875 57.136719-57.136719c15.652344-15.652343 41.027344-15.660156 56.6875 0l21.726562 21.726563c15.664063 15.660156 15.664063 41.042968.007813 56.695312zm0 0" fill="#d7f4f1"/><path d="m498.027344 69.015625-54.542969-54.542969c-9.011719-9.011718-20.992187-13.972656-33.734375-13.972656-12.746094 0-24.726562 4.960938-33.734375 13.972656l-51.773437 51.773438c-6.996094-6.464844-16.273438-9.734375-25.695313-8.988282-30.613281 2.417969-62.214844 13.574219-94.011719 33.140626l-.492187-.496094c-14.582031-14.582032-38.308594-14.582032-52.894531 0l-1.101563 1.101562c-7.0625 7.0625-10.953125 16.453125-10.953125 26.445313 0 7.078125 1.960938 13.851562 5.613281 19.714843-2.777343 2.640626-5.542969 5.335938-8.273437 8.0625-70.382813 70.382813-125.074219 169.207032-136.09375 245.910157-1.519532 10.554687 2.109375 21.394531 9.707031 29.003906l82.304687 82.308594c6.457032 6.457031 15.261719 10.046875 24.253907 10.046875 1.585937 0 3.175781-.113282 4.761719-.339844 12.171874-1.746094 25.113281-4.621094 38.464843-8.550781 4.039063-1.183594 6.347657-5.421875 5.160157-9.460938-1.1875-4.039062-5.425782-6.351562-9.460938-5.164062-12.65625 3.722656-24.878906 6.441406-36.328125 8.085937-5.847656.839844-11.851563-1.179687-16.070313-5.398437l-82.300781-82.300781c-4.222656-4.226563-6.242187-10.234376-5.402343-16.066407 10.585937-73.695312 63.546874-169.058593 131.78125-237.292969 2.5-2.5 5.027343-4.960937 7.566406-7.386718l209.097656 209.101562c-2.421875 2.539063-4.890625 5.070313-7.386719 7.570313-49.3125 49.316406-112.917969 91.128906-174.507812 114.710937-3.933594 1.503906-5.898438 5.910156-4.390625 9.84375 1.160156 3.035156 4.050781 4.898438 7.117187 4.898438.90625 0 1.828125-.164063 2.726563-.503906 63.515625-24.320313 129.0625-67.394532 179.835937-118.171876 2.730469-2.730468 5.429688-5.503906 8.074219-8.285156 6.015625 3.726563 12.859375 5.601563 19.707031 5.601563 9.578125 0 19.15625-3.644531 26.445313-10.9375l1.101562-1.097657c14.582032-14.582031 14.582032-38.308593 0-52.890624l-.496094-.496094c19.570313-31.808594 30.726563-63.410156 33.148438-94.015625.746094-9.40625-2.527344-18.6875-8.996094-25.691407l51.769532-51.773437c9.011718-9.011719 13.976562-20.988281 13.976562-33.734375 0-12.742188-4.960938-24.722656-13.972656-33.734375zm-57.976563 143.730469c-2.152343 27.195312-11.929687 55.453125-29.050781 84.113281l-146.066406-146.0625c-2.976563-2.980469-7.804688-2.980469-10.78125 0-2.976563 2.976563-2.976563 7.800781 0 10.777344l157.667968 157.664062c8.636719 8.640625 8.636719 22.691407 0 31.332031l-1.101562 1.101563c-8.636719 8.636719-22.695312 8.636719-31.332031 0l-218.558594-218.558594c-4.183594-4.183593-6.488281-9.746093-6.488281-15.664062s2.304687-11.480469 6.488281-15.664063l1.101563-1.101562c8.636718-8.640625 22.691406-8.640625 31.332031 0l4.675781 4.675781c.046875.050781.09375.09375.140625.140625l37.152344 37.152344c2.976562 2.976562 7.800781 2.976562 10.777343 0 2.976563-2.980469 2.976563-7.804688 0-10.78125l-30.367187-30.367188c28.65625-17.117187 56.910156-26.898437 84.109375-29.050781 5.417969-.425781 10.78125 1.585937 14.722656 5.527344l120.042969 120.042969c3.945313 3.945312 5.964844 9.3125 5.535156 14.722656zm47.195313-87.039063-51.742188 51.742188-100.453125-100.453125 51.742188-51.742188c6.132812-6.132812 14.285156-9.507812 22.957031-9.507812s16.824219 3.375 22.953125 9.507812l54.542969 54.542969c6.132812 6.132813 9.507812 14.285156 9.507812 22.953125 0 8.671875-3.375 16.824219-9.507812 22.957031zm0 0"/><path d="m474.214844 234.488281c-4.1875-.199219-7.757813 3.085938-7.9375 7.289063-.003906.121094-.535156 11.941406-3.453125 25.933594-3.6875 17.710937-9.457031 30.886718-16.679688 38.113281-2.976562 2.976562-2.976562 7.804687 0 10.777343 1.488281 1.488282 3.4375 2.234376 5.386719 2.234376 1.953125 0 3.902344-.742188 5.390625-2.234376 22.175781-22.171874 24.5-72.070312 24.585937-74.183593.175782-4.203125-3.089843-7.753907-7.292968-7.929688zm0 0"/><path d="m380.066406 413.757812c2.746094-3.191406 2.386719-8.003906-.804687-10.75-3.195313-2.746093-8.007813-2.386718-10.75.808594-58.742188 68.257813-138.664063 89.875-139.464844 90.085938-4.070313 1.066406-6.507813 5.230468-5.441406 9.300781.894531 3.429687 3.984375 5.699219 7.367187 5.699219.640625 0 1.289063-.082032 1.933594-.25 3.449219-.902344 85.210938-22.902344 147.160156-94.894532zm0 0"/><path d="m395.1875 431.195312c-3.339844-2.5625-8.125-1.929687-10.6875 1.410157-21.820312 28.464843-53.578125 43.230469-54.027344 43.4375-3.828125 1.746093-5.519531 6.261719-3.777344 10.089843 1.277344 2.8125 4.046876 4.472657 6.941407 4.472657 1.058593 0 2.128906-.222657 3.152343-.6875 1.4375-.652344 35.554688-16.394531 59.8125-48.039063 2.558594-3.339844 1.925782-8.121094-1.414062-10.683594zm0 0"/><path d="m202.410156 64.632812c1.949219 0 3.902344-.742187 5.390625-2.234374 7.222657-7.222657 20.402344-12.992188 38.109375-16.679688 13.996094-2.917969 25.816406-3.449219 25.933594-3.453125 4.207031-.175781 7.472656-3.726563 7.296875-7.933594s-3.742187-7.488281-7.933594-7.300781c-2.113281.089844-52.011719 2.414062-74.1875 24.585938-2.976562 2.980468-2.976562 7.804687 0 10.78125 1.488281 1.488281 3.441407 2.234374 5.390625 2.234374zm0 0"/><path d="m10.417969 284.933594c.644531.171875 1.296875.25 1.933593.25 3.382813 0 6.472657-2.265625 7.371094-5.6875.210938-.800782 21.828125-80.722656 90.085938-139.464844 3.191406-2.746094 3.554687-7.558594.808594-10.75-2.746094-3.1875-7.5625-3.550781-10.75-.804688-71.992188 61.949219-93.992188 143.710938-94.894532 147.160157-1.0625 4.070312 1.375 8.230469 5.445313 9.296875zm0 0"/><path d="m27.488281 181.847656c1.023438.464844 2.09375.6875 3.152344.6875 2.894531 0 5.664063-1.664062 6.941406-4.472656.144531-.316406 14.789063-32.058594 43.4375-54.019531 3.339844-2.5625 3.972657-7.347657 1.410157-10.6875-2.5625-3.34375-7.347657-3.972657-10.6875-1.414063-31.640626 24.257813-47.382813 58.375-48.039063 59.8125-1.742187 3.832032-.046875 8.351563 3.785156 10.09375zm0 0"/></svg>