<?xml version="1.0" encoding="iso-8859-1"?>
<!-- Generator: Adobe Illustrator 19.0.0, SVG Export Plug-In . SVG Version: 6.00 Build 0)  -->
<svg xmlns="http://www.w3.org/2000/svg" xmlns:xlink="http://www.w3.org/1999/xlink" version="1.1" id="Capa_1" x="0px" y="0px" viewBox="0 0 512 512" style="enable-background:new 0 0 512 512;" xml:space="preserve" width="512" height="512">
<g>
	<rect y="157.53" style="fill:#B4D2D7;" width="80.052" height="30"/>
	<rect x="431.948" y="157.53" style="fill:#87A0AF;" width="80.052" height="30"/>
	<path style="fill:#B4D2D7;" d="M256,128.494l-20.016,115.511L256,383.506h0c114.52,0,207.357-92.837,207.357-207.357v-47.655H256z"/>
	<path style="fill:#E1EBF0;" d="M48.643,128.494v47.655c0,114.52,92.837,207.357,207.357,207.357h0V128.494H48.643z"/>
	<rect x="240.988" y="180.952" style="fill:#07485E;" width="30.024" height="30"/>
	<rect x="240.988" y="241" style="fill:#07485E;" width="30.024" height="30"/>
	<rect x="301.036" y="180.952" style="fill:#03232E;" width="30.024" height="30"/>
	<rect x="361.084" y="180.952" style="fill:#03232E;" width="30.024" height="30"/>
	<rect x="301.036" y="241" style="fill:#03232E;" width="30.024" height="30"/>
	<rect x="180.94" y="180.952" style="fill:#07485E;" width="30.024" height="30"/>
	<rect x="180.94" y="241" style="fill:#07485E;" width="30.024" height="30"/>
	<rect x="120.892" y="180.952" style="fill:#07485E;" width="30.024" height="30"/>
	<rect x="240.988" y="301.048" style="fill:#07485E;" width="30.024" height="30"/>
</g>















</svg>
